HIERARCHY
ROOT Hips
{
	OFFSET	0.00	0.00	0.00
	CHANNELS 6 Xposition Yposition Zposition Zrotation Xrotation Yrotation
	JOINT LeftUpLeg
	{
		OFFSET	 0.126116	-0.014019	-0.065224
		CHANNELS 3 Zrotation Xrotation Yrotation
		JOINT LeftLeg
		{
			OFFSET	 0.000000	 0.000000	 0.569914
			CHANNELS 3 Zrotation Xrotation Yrotation
			JOINT LeftFoot
			{
				OFFSET	 0.000000	 0.000000	 0.544423
				CHANNELS 3 Zrotation Xrotation Yrotation
				JOINT LeftToeBase
				{
					OFFSET	 0.000000	 0.000000	 0.207117
					CHANNELS 3 Zrotation Xrotation Yrotation
					End Site
					{
						OFFSET	 0.000000	 0.000000	 0.207117
					}
				}
			}
		}
	}
	JOINT RightUpLeg
	{
		OFFSET	-0.124023	-0.008373	-0.065224
		CHANNELS 3 Zrotation Xrotation Yrotation
		JOINT RightLeg
		{
			OFFSET	 0.000000	 0.000000	 0.570047
			CHANNELS 3 Zrotation Xrotation Yrotation
			JOINT RightFoot
			{
				OFFSET	 0.000000	 0.000000	 0.544354
				CHANNELS 3 Zrotation Xrotation Yrotation
				JOINT RightToeBase
				{
					OFFSET	 0.000000	 0.000000	 0.207540
					CHANNELS 3 Zrotation Xrotation Yrotation
					End Site
					{
						OFFSET	 0.000000	 0.000000	 0.207540
					}
				}
			}
		}
	}
	JOINT Spine
	{
		OFFSET	 0.000184	-0.007763	 0.117403
		CHANNELS 3 Zrotation Xrotation Yrotation
		JOINT Spine1
		{
			OFFSET	 0.000000	 0.000000	 0.137269
			CHANNELS 3 Zrotation Xrotation Yrotation
			JOINT Spine2
			{
				OFFSET	 0.000000	 0.000000	 0.156879
				CHANNELS 3 Zrotation Xrotation Yrotation
				JOINT LeftShoulder
				{
					OFFSET	 0.080501	-0.002496	 0.160144
					CHANNELS 3 Zrotation Xrotation Yrotation
					JOINT LeftArm
					{
						OFFSET	 0.000000	 0.000000	 0.164363
						CHANNELS 3 Zrotation Xrotation Yrotation
						JOINT LeftForeArm
						{
							OFFSET	 0.000000	 0.000000	 0.364576
							CHANNELS 3 Zrotation Xrotation Yrotation
							JOINT LeftHand
							{
								OFFSET	 0.000000	 0.000000	 0.360812
								CHANNELS 3 Zrotation Xrotation Yrotation
								JOINT LeftHandIndex1
								{
									OFFSET	 0.000000	 0.000000	 0.086006
									CHANNELS 3 Zrotation Xrotation Yrotation
									JOINT LeftHandIndex2
									{
										OFFSET	 0.000000	 0.000000	 0.047236
										CHANNELS 3 Zrotation Xrotation Yrotation
										JOINT LeftHandIndex3
										{
											OFFSET	-0.004284	-0.000551	 0.038166
											CHANNELS 3 Zrotation Xrotation Yrotation
											End Site
											{
												OFFSET	-0.004284	-0.000551	 0.038166
											}
										}
									}
								}
							}
						}
					}
				}
				JOINT Neck
				{
					OFFSET	 0.000000	 0.000000	 0.176489
					CHANNELS 3 Zrotation Xrotation Yrotation
					JOINT Head
					{
						OFFSET	 0.000000	-0.001747	 0.077940
						CHANNELS 3 Zrotation Xrotation Yrotation
						End Site
						{
							OFFSET	 0.000000	-0.001747	 0.077940
						}
					}
				}
				JOINT RightShoulder
				{
					OFFSET	-0.080363	 0.000306	 0.159706
					CHANNELS 3 Zrotation Xrotation Yrotation
					JOINT RightArm
					{
						OFFSET	 0.000000	 0.000000	 0.164196
						CHANNELS 3 Zrotation Xrotation Yrotation
						JOINT RightForeArm
						{
							OFFSET	 0.000000	 0.000000	 0.365611
							CHANNELS 3 Zrotation Xrotation Yrotation
							JOINT RightHand
							{
								OFFSET	 0.000000	 0.000000	 0.360648
								CHANNELS 3 Zrotation Xrotation Yrotation
								JOINT RightHandIndex1
								{
									OFFSET	 0.000000	 0.000000	 0.069977
									CHANNELS 3 Zrotation Xrotation Yrotation
									JOINT RightHandIndex2
									{
										OFFSET	 0.000000	 0.000000	 0.052305
										CHANNELS 3 Zrotation Xrotation Yrotation
										JOINT RightHandIndex3
										{
											OFFSET	 0.009002	-0.000782	 0.042196
											CHANNELS 3 Zrotation Xrotation Yrotation
											End Site
											{
												OFFSET	 0.009002	-0.000782	 0.042196
											}
										}
									}
								}
							}
						}
					}
				}
			}
		}
	}
}
MOTION
Frames:    13
Frame Time: 0.03333334
-0.041591	 0.260293	 0.991499	 4.077645	 33.672570	-8.813282	-5.955506	-86.064930	 176.822200	 8.598063	-75.786110	 8.742962	-48.452820	 83.800840	 54.431840	-2.385832	 28.452790	-0.000001	 88.515420	-75.239850	-98.447290	-23.767550	-79.762090	-18.344790	 84.523520	 79.268320	-76.577150	 2.384659	 28.388700	-0.000001	 2.360333	 15.810710	-0.169628	-1.452319	 23.051160	-0.285241	-7.892877	-1.660825	 5.040724	-99.150990	 68.200290	 156.828700	 8.586871	-4.267128	-38.938030	-5.137676	 10.886650	-33.990460	-30.720000	-36.773040	-21.310230	-2.027600	 6.559038	 9.033609	-5.188889	 0.308190	 3.541030	-5.234859	 0.342567	 0.430617	 0.342309	 17.525110	-5.977538	-7.251315	-27.126650	-4.252523	 97.432160	 64.650830	-159.183500	-4.679934	 3.115761	 50.315140	-6.758131	 0.476309	 28.061370	 13.222790	-36.058400	 16.088730	 1.803333	 3.979147	-15.098590	 4.898592	 3.004813	-9.310344	 5.224449	 0.395017	 2.014677
-0.041148	 0.259606	 0.997357	 3.890136	 33.134170	-8.477258	-8.553025	-84.940490	 174.288800	 7.848119	-75.056960	 7.988843	-47.581050	 83.660390	 53.556480	-2.385832	 28.452790	-0.000001	 84.021550	-75.268060	-103.053900	-22.666470	-78.965670	-17.215610	 83.336040	 79.324080	-75.242590	 2.384659	 28.388700	-0.000001	 2.517167	 15.838670	-0.264378	-1.269759	 23.388750	-0.507523	-7.963289	-2.172250	 4.846376	-98.991390	 68.256120	 157.234800	 8.409949	-3.389062	-39.299470	-4.925450	 10.900600	-34.406460	-31.052310	-36.651500	-21.587030	-2.027600	 6.559038	 9.033609	-5.188889	 0.308190	 3.541030	-5.234859	 0.342567	 0.430617	 0.002983	 15.479250	-5.139866	-7.476424	-24.985150	-4.463789	 97.322200	 64.550240	-159.559300	-4.876073	 3.099767	 50.455240	-6.455059	 0.647171	 28.404130	 13.526100	-35.875990	 16.855340	 1.803333	 3.979147	-15.098590	 4.898592	 3.004813	-9.310344	 5.224449	 0.395017	 2.014677
-0.040756	 0.258966	 1.003114	 3.774957	 32.626100	-8.208089	-10.360430	-83.849130	 172.619700	 7.359980	-74.297870	 7.489671	-46.287170	 83.469440	 52.162030	-2.385832	 28.452790	-0.000001	 79.674900	-75.209690	-107.442900	-21.730740	-78.183880	-16.251770	 81.871650	 79.379620	-73.675180	 2.384659	 28.388700	-0.000001	 2.650321	 15.883830	-0.330329	-1.065832	 23.685760	-0.742827	-8.051963	-2.647694	 4.663927	-98.742570	 68.509820	 157.623800	 8.313600	-2.388286	-39.823310	-4.715447	 10.877810	-34.736010	-31.422780	-36.581980	-21.978130	-2.027600	 6.559038	 9.033609	-5.188889	 0.308190	 3.541030	-5.234859	 0.342567	 0.430617	-0.260635	 13.308740	-4.607630	-7.570594	-22.748840	-4.433221	 97.195230	 64.343540	-160.077900	-5.111698	 2.895314	 50.689360	-6.232793	 0.779602	 28.783760	 13.558450	-35.536190	 17.512700	 1.803333	 3.979147	-15.098590	 4.898592	 3.004813	-9.310344	 5.224449	 0.395017	 2.014677
-0.040201	 0.258312	 1.009354	 3.659008	 32.083770	-7.935590	-11.498100	-82.672260	 171.635100	 6.886665	-73.460340	 7.004087	-44.891560	 83.257450	 50.665450	-2.385832	 28.452790	-0.000001	 75.050600	-75.036020	-112.100000	-20.829340	-77.326740	-15.319140	 80.291860	 79.430600	-71.977040	 2.384659	 28.388700	-0.000001	 2.776865	 15.913710	-0.395691	-0.853020	 23.921480	-0.970937	-8.141218	-3.100021	 4.476110	-98.492870	 68.767460	 158.018200	 8.287478	-1.303467	-40.306840	-4.432054	 10.855060	-35.079270	-31.861600	-36.532460	-22.418430	-2.027600	 6.559038	 9.033609	-5.188889	 0.308190	 3.541030	-5.234859	 0.342567	 0.430617	-0.504421	 11.112620	-4.085505	-7.647331	-20.491010	-4.387539	 97.064240	 64.134400	-160.601300	-5.411126	 2.717931	 50.830270	-6.012895	 0.918430	 29.261410	 13.585360	-35.161980	 18.161060	 1.803333	 3.979147	-15.098590	 4.898592	 3.004813	-9.310344	 5.224449	 0.395017	 2.014677
-0.039383	 0.257734	 1.016782	 3.484929	 31.388350	-7.572324	-12.369590	-81.224570	 170.913800	 6.400557	-72.464240	 6.503084	-43.357540	 83.026050	 48.991650	-2.385832	 28.452790	-0.000001	 69.513060	-74.692670	-117.704800	-19.964870	-76.281290	-14.413700	 78.574710	 79.467330	-70.117010	 2.384659	 28.388700	-0.000001	 2.868411	 15.951280	-0.466318	-0.645720	 24.169100	-1.191971	-8.231067	-3.695698	 4.226347	-98.058470	 69.355800	 158.498700	 8.531058	 0.311410	-40.959810	-4.249312	 10.778700	-35.369220	-32.309270	-36.396060	-23.082480	-2.027600	 6.559038	 9.033609	-5.188889	 0.308190	 3.541030	-5.234859	 0.342567	 0.430617	-0.736213	 8.161765	-3.443249	-7.749384	-17.508550	-4.380681	 96.884490	 64.170340	-161.031800	-5.861449	 3.039840	 50.842780	-6.014981	 0.940057	 29.864510	 13.464090	-34.681550	 18.666230	 1.803333	 3.979147	-15.098590	 4.898592	 3.004813	-9.310344	 5.224449	 0.395017	 2.014677
-0.038405	 0.257340	 1.024166	 3.318045	 30.727480	-7.238648	-12.754420	-79.822290	 170.666500	 5.976090	-71.444340	 6.062854	-41.742940	 82.783780	 47.239070	-2.385833	 28.452760	 0.000004	 64.421990	-74.205370	-122.848500	-19.202300	-75.218280	-13.608410	 76.851930	 79.480510	-68.254620	 2.384659	 28.388700	-0.000001	 2.919960	 15.957470	-0.520963	-0.477833	 24.326400	-1.363353	-8.306038	-4.217891	 3.994251	-97.632090	 69.963320	 158.927300	 8.905772	 1.900685	-41.504880	-4.020205	 10.703870	-35.625800	-32.789330	-36.291310	-23.778310	-2.027600	 6.559038	 9.033609	-5.188889	 0.308190	 3.541030	-5.234859	 0.342567	 0.430617	-0.903586	 5.441708	-2.874744	-7.830031	-14.776310	-4.378540	 96.719540	 64.286130	-161.360900	-6.346357	 3.499705	 50.702110	-6.095241	 0.916251	 30.480390	 13.303710	-34.234020	 19.033490	 1.803333	 3.979147	-15.098590	 4.898592	 3.004813	-9.310344	 5.224449	 0.395017	 2.014677
-0.037003	 0.257036	 1.033628	 3.115315	 29.902410	-6.824324	-12.986830	-78.052140	 170.595900	 5.578215	-70.099960	 5.639180	-39.696140	 82.465710	 44.988450	-2.385833	 28.452760	 0.000004	 58.449600	-73.416880	-128.871500	-18.391040	-73.814470	-12.737250	 74.621560	 79.470620	-65.829320	 2.384659	 28.388700	-0.000001	 2.965811	 15.957750	-0.589156	-0.276121	 24.460120	-1.578887	-8.379336	-4.818484	 3.741126	-97.001050	 70.942250	 159.412300	 9.507757	 4.042234	-42.290900	-3.745625	 10.599820	-35.904070	-33.362230	-36.181490	-24.569810	-2.027600	 6.559038	 9.033609	-5.188889	 0.308190	 3.541030	-5.234859	 0.342567	 0.430617	-1.063961	 2.197484	-2.397814	-7.861459	-11.540430	-4.216801	 96.428010	 64.692040	-161.782900	-6.966227	 4.374509	 50.604760	-6.239350	 0.857492	 31.260610	 13.180790	-33.854340	 19.446720	 1.803333	 3.979147	-15.098590	 4.898592	 3.004813	-9.310344	 5.224449	 0.395017	 2.014677
-0.035633	 0.256936	 1.042283	 2.928590	 29.134530	-6.420825	-13.147980	-76.421420	 170.557400	 5.380823	-68.846690	 5.409129	-37.947460	 82.185030	 43.000090	-2.385833	 28.452760	 0.000004	 53.396370	-72.562500	-133.971000	-17.832160	-72.482170	-12.115340	 72.588150	 79.442250	-63.586030	 2.384659	 28.388700	-0.000001	 2.999758	 15.986290	-0.663709	-0.085627	 24.564720	-1.803706	-8.420403	-5.365167	 3.551478	-96.214290	 72.235350	 159.791700	 10.175950	 6.269149	-43.319950	-3.502615	 10.472000	-36.065380	-33.902200	-36.114800	-25.229050	-2.027600	 6.559038	 9.033609	-5.188889	 0.308190	 3.541030	-5.234859	 0.342567	 0.430617	-1.188432	-0.745054	-2.273899	-7.821159	-8.641514	-3.837109	 96.011210	 65.488350	-162.208400	-7.522469	 5.663005	 50.776620	-6.443676	 0.753337	 31.945700	 13.179140	-33.782890	 19.789620	 1.803333	 3.979147	-15.098590	 4.898592	 3.004813	-9.310344	 5.224449	 0.395017	 2.014677
-0.033920	 0.256556	 1.052587	 2.722556	 28.244750	-5.951646	-13.260920	-74.484550	 170.586300	 5.170497	-67.332770	 5.157915	-35.971290	 81.835070	 40.753200	-2.385833	 28.452760	 0.000004	 48.053540	-71.385800	-139.362900	-17.241330	-70.862360	-11.444740	 70.034020	 79.395630	-60.761610	 2.384659	 28.388700	-0.000001	 3.041557	 15.968030	-0.749010	 0.145455	 24.649780	-2.041951	-8.468493	-6.078533	 3.316945	-95.274630	 73.721520	 160.182800	 11.105510	 8.908492	-44.467240	-3.220502	 10.330220	-36.274760	-34.489380	-36.035360	-25.984290	-2.027600	 6.559038	 9.033609	-5.188889	 0.308190	 3.541030	-5.234859	 0.342567	 0.430617	-1.323435	-4.109239	-2.143191	-7.785180	-5.408624	-3.410186	 95.535970	 66.402440	-162.696400	-8.297080	 7.177845	 50.859630	-6.677011	 0.630638	 32.906140	 13.148960	-33.694760	 20.172650	 1.803333	 3.979147	-15.098590	 4.898592	 3.004813	-9.310344	 5.224449	 0.395017	 2.014677
-0.032265	 0.255719	 1.061851	 2.602438	 27.403130	-5.521230	-13.466360	-72.676730	 170.558000	 5.113980	-65.962670	 5.053520	-34.116200	 81.525090	 38.610540	-2.385833	 28.452750	 0.000004	 43.687250	-70.142150	-143.778500	-15.969830	-69.444250	-10.149230	 67.973750	 79.347950	-58.737930	 2.384659	 28.388700	-0.000001	 3.053130	 15.932740	-0.854146	 0.331970	 24.717030	-2.291600	-8.489113	-6.751526	 3.148545	-94.405080	 75.015370	 160.552800	 12.137240	 10.965600	-45.550510	-2.933371	 10.197590	-36.525530	-34.746680	-35.907900	-26.623660	-2.027600	 6.559038	 9.033609	-5.188889	 0.308190	 3.541030	-5.234859	 0.342567	 0.430617	-1.441237	-7.411350	-2.297556	-7.743761	-2.299114	-2.861650	 95.091830	 67.278050	-163.136600	-9.116354	 8.485411	 50.944690	-6.850412	 0.539038	 33.931010	 13.054180	-33.621380	 20.322430	 1.803333	 3.979147	-15.098590	 4.898592	 3.004813	-9.310344	 5.224449	 0.395017	 2.014677
-0.029943	 0.254299	 1.073452	 2.499184	 26.422570	-5.017497	-13.561800	-70.466210	 170.685000	 5.034816	-64.205160	 4.910980	-31.690740	 81.120130	 35.861060	-2.385833	 28.452750	 0.000004	 39.123160	-68.445760	-148.388000	-14.584420	-67.607050	-8.737852	 65.482480	 79.222380	-56.279700	 2.384659	 28.388700	-0.000001	 3.044860	 15.784940	-0.988937	 0.532089	 24.715860	-2.559106	-8.507457	-7.487873	 2.955526	-93.354130	 76.497100	 160.918000	 13.467000	 13.306040	-46.666030	-2.571605	 10.085660	-37.002260	-34.991330	-35.754700	-27.344270	-2.027600	 6.559038	 9.033609	-5.188889	 0.308190	 3.541030	-5.234859	 0.342567	 0.430617	-1.589229	-11.200630	-2.505611	-7.723838	 1.261648	-2.224111	 94.584890	 68.284430	-163.643700	-10.177570	 9.997238	 50.921390	-7.044632	 0.431493	 35.408730	 12.917580	-33.529590	 20.471680	 1.803333	 3.979147	-15.098590	 4.898592	 3.004813	-9.310344	 5.224449	 0.395017	 2.014677
-0.027472	 0.252331	 1.084635	 2.544789	 25.634070	-4.613324	-13.667450	-68.463630	 170.844200	 4.876422	-62.437660	 4.735744	-28.973600	 80.707460	 32.886750	-2.385833	 28.452750	 0.000004	 35.608010	-66.758730	-151.863900	-13.359830	-65.790100	-7.499773	 63.072800	 79.006940	-53.890170	 2.384659	 28.388700	-0.000001	 3.044086	 15.422990	-1.173593	 0.645108	 24.615030	-2.769398	-8.499645	-8.140050	 2.711027	-93.097340	 76.792610	 161.509100	 14.630940	 14.666430	-46.767250	-2.160579	 10.079400	-37.898600	-34.842250	-35.477160	-27.943860	-2.027600	 6.559038	 9.033609	-5.188889	 0.308190	 3.541030	-5.234859	 0.342567	 0.430617	-1.664875	-13.217700	-2.298254	-7.717963	 3.202059	-2.067173	 94.243270	 68.901500	-164.073100	-11.158110	 11.236500	 50.431270	-7.221469	 0.324023	 36.999800	 12.676330	-33.324640	 20.525050	 1.803333	 3.979147	-15.098590	 4.898592	 3.004813	-9.310344	 5.224449	 0.395017	 2.014677
-0.024426	 0.249257	 1.098173	 2.737660	 24.812700	-4.208773	-13.422600	-66.148190	 171.431700	 4.792915	-60.201560	 4.500159	-25.583210	 80.159810	 29.230510	-2.385833	 28.452750	 0.000004	 32.122700	-64.664230	-155.222100	-11.992510	-63.525550	-6.134077	 60.111250	 78.661950	-50.959170	 2.384659	 28.388700	-0.000001	 3.062167	 14.762830	-1.431973	 0.707014	 24.402820	-2.966174	-8.462809	-8.903830	 2.334749	-93.572830	 75.948590	 162.497600	 15.847920	 15.401120	-45.857560	-1.587368	 10.158300	-39.449470	-34.254940	-34.978050	-28.588040	-2.027600	 6.559038	 9.033609	-5.188889	 0.308190	 3.541030	-5.234859	 0.342567	 0.430617	-1.669242	-14.002770	-1.592705	-7.687740	 4.046954	-2.360402	 93.974660	 69.296110	-164.549400	-12.263640	 12.543850	 49.349620	-7.427971	 0.181338	 39.046590	 12.266080	-32.939480	 20.497660	 1.803333	 3.979147	-15.098590	 4.898592	 3.004813	-9.310344	 5.224449	 0.395017	 2.014677
